<!-- icon666.com - MILLIONS vector ICONS FREE --><svg xmlns="http://www.w3.org/2000/svg" xmlns:xlink="http://www.w3.org/1999/xlink" version="1.1" id="Capa_1" x="0px" y="0px" viewBox="0 0 435.717 435.717" style="enable-background:new 0 0 435.717 435.717;" xml:space="preserve"><g><path style="fill:#945136;" d="M304.22,92.044c7.3,0,13.23,5.93,13.23,13.24s-5.93,13.23-13.23,13.23 c-7.31,0-13.24-5.92-13.24-13.23S296.91,92.044,304.22,92.044z"/><path style="fill:#FF9212;" d="M257.46,139.874c0,0.01-4.5,4.52-4.5,4.52c-0.01-0.01-39.11-39.11-39.11-39.11h39.1 c-0.37,2.87-0.56,5.8-0.56,8.77C252.39,123.194,254.2,131.914,257.46,139.874z"/><path style="fill:#FFD608;" d="M147.29,287.864L45.32,389.844H7.5l124.59-124.59C136.51,273.244,141.59,280.804,147.29,287.864z"/><path style="fill:#FFD608;" d="M366.49,169.884c1.22,6.17,1.85,12.53,1.85,19.04c0,54.13-43.87,98-98,98 c-43.27,0-79.98-28.04-92.98-66.94l75.6-75.59l4.5-4.51c-3.26-7.97-5.07-16.69-5.07-25.83c0-2.97,0.19-5.9,0.56-8.77 c4.3-33.52,32.94-59.42,67.63-59.42c56.62,0,100.11,53.02,106.75,124.02H366.49z M317.45,105.284c0-7.31-5.93-13.24-13.23-13.24 c-7.31,0-13.24,5.93-13.24,13.24s5.93,13.23,13.24,13.23C311.52,118.514,317.45,112.594,317.45,105.284z"/><path style="fill:#FFF2B1;" d="M427.33,169.884c0.59,6.23,0.89,12.6,0.89,19.08c0,87.2-70.68,157.88-157.88,157.88 c-49.75,0-94.12-23.01-123.05-58.98c-5.7-7.06-10.78-14.62-15.2-22.61l45.27-45.27c13,38.9,49.71,66.94,92.98,66.94 c54.13,0,98-43.87,98-98c0-6.51-0.63-12.87-1.85-19.04H427.33z"/><path style="fill:#591200;" d="M304.214,84.552c-11.433,0-20.735,9.302-20.735,20.735s9.302,20.735,20.735,20.735 s20.735-9.302,20.735-20.735S315.647,84.552,304.214,84.552z M304.214,111.022c-3.162,0-5.735-2.573-5.735-5.735 s2.573-5.735,5.735-5.735s5.735,2.573,5.735,5.735S307.376,111.022,304.214,111.022z"/><path style="fill:#591200;" d="M403.504,82.801c-21.391-28.65-50.84-44.428-82.922-44.428c-36.148,0-66.44,25.478-73.909,59.414 H213.85c-3.034,0-5.768,1.827-6.929,4.63c-1.161,2.803-0.519,6.028,1.626,8.173l13.235,13.235c1.464,1.465,3.384,2.197,5.303,2.197 s3.839-0.732,5.303-2.197c2.929-2.929,2.929-7.678,0-10.606l-0.432-0.432h12.966c-0.007,0.426-0.032,0.848-0.032,1.276 c0,8.19,1.299,16.211,3.869,23.91L2.197,384.541c-2.929,2.929-2.929,7.678,0,10.606c1.464,1.464,3.384,2.197,5.303,2.197 s3.839-0.732,5.303-2.197l117.759-117.761c2.14,3.378,4.404,6.652,6.762,9.841l-97.313,97.314c-2.929,2.929-2.929,7.678,0,10.606 c1.464,1.464,3.384,2.197,5.303,2.197s3.839-0.732,5.303-2.197l96.213-96.213c31.027,34.811,75.794,55.412,123.513,55.412 c91.188,0,165.374-74.187,165.374-165.374C435.717,148.329,424.277,110.624,403.504,82.801z M270.343,339.346 c-45.982,0-88.948-21.035-117.23-56.194c-4.237-5.269-8.131-10.817-11.654-16.664l33.158-33.159 c17.112,36.977,54.225,61.101,95.725,61.101c35.633,0,68.609-17.797,88.21-47.608c2.276-3.461,1.315-8.111-2.146-10.387 c-3.461-2.275-8.11-1.315-10.387,2.146c-16.819,25.579-45.109,40.849-75.677,40.849c-37.483,0-70.792-22.939-84.297-57.53 l76.606-76.607c2.202-2.108,2.928-5.379,1.75-8.256c-2.995-7.314-4.513-15.044-4.513-22.975c0-33.465,27.226-60.69,60.69-60.69 c27.233,0,52.414,13.638,70.903,38.402c18.852,25.249,29.233,59.767,29.233,97.197C420.717,271.889,353.26,339.346,270.343,339.346 z"/></g></svg>